G04 EAGLE Gerber RS-274X export*
G75*
%MOMM*%
%FSLAX34Y34*%
%LPD*%
%INBottom Copper*%
%IPPOS*%
%AMOC8*
5,1,8,0,0,1.08239X$1,22.5*%
G01*
%ADD10R,2.032000X2.032000*%
%ADD11C,1.320800*%
%ADD12P,1.429621X8X292.500000*%
%ADD13P,1.429621X8X112.500000*%
%ADD14P,2.034460X8X292.500000*%
%ADD15C,1.117600*%
%ADD16C,1.879600*%
%ADD17P,1.429621X8X202.500000*%
%ADD18P,1.429621X8X22.500000*%
%ADD19C,1.408000*%
%ADD20C,0.152400*%
%ADD21C,0.756400*%


D10*
X25400Y350520D03*
X25400Y325120D03*
X25400Y299720D03*
X25400Y274320D03*
X25400Y248920D03*
X25400Y223520D03*
X25400Y198120D03*
X25400Y172720D03*
X25400Y147320D03*
X25400Y121920D03*
X25400Y96520D03*
X25400Y71120D03*
X25400Y45720D03*
X25400Y20320D03*
X25400Y909320D03*
X25400Y426720D03*
X25400Y883920D03*
X25400Y858520D03*
X25400Y833120D03*
X25400Y401320D03*
X25400Y375920D03*
D11*
X120396Y502920D02*
X133604Y502920D01*
X133604Y477520D02*
X120396Y477520D01*
X120396Y452120D02*
X133604Y452120D01*
X133604Y426720D02*
X120396Y426720D01*
X120396Y401320D02*
X133604Y401320D01*
X133604Y375920D02*
X120396Y375920D01*
X120396Y350520D02*
X133604Y350520D01*
X133604Y325120D02*
X120396Y325120D01*
X120396Y299720D02*
X133604Y299720D01*
X133604Y274320D02*
X120396Y274320D01*
X120396Y248920D02*
X133604Y248920D01*
X133604Y223520D02*
X120396Y223520D01*
X120396Y198120D02*
X133604Y198120D01*
X133604Y172720D02*
X120396Y172720D01*
X196596Y172720D02*
X209804Y172720D01*
X209804Y198120D02*
X196596Y198120D01*
X196596Y223520D02*
X209804Y223520D01*
X209804Y248920D02*
X196596Y248920D01*
X196596Y274320D02*
X209804Y274320D01*
X209804Y299720D02*
X196596Y299720D01*
X196596Y325120D02*
X209804Y325120D01*
X209804Y350520D02*
X196596Y350520D01*
X196596Y375920D02*
X209804Y375920D01*
X209804Y401320D02*
X196596Y401320D01*
X196596Y426720D02*
X209804Y426720D01*
X209804Y452120D02*
X196596Y452120D01*
X196596Y477520D02*
X209804Y477520D01*
X209804Y502920D02*
X196596Y502920D01*
D12*
X285750Y121920D03*
X285750Y20320D03*
D13*
X203200Y20320D03*
X203200Y71120D03*
D14*
X233680Y72390D03*
X259080Y72390D03*
X233680Y46990D03*
X259080Y46990D03*
X233680Y21590D03*
X259080Y21590D03*
D13*
X177800Y20320D03*
X177800Y71120D03*
D15*
X200660Y116332D02*
X200660Y127508D01*
X149860Y127508D02*
X149860Y116332D01*
D12*
X127000Y71120D03*
X127000Y20320D03*
X152400Y71120D03*
X152400Y20320D03*
D16*
X285750Y276860D03*
X285750Y251460D03*
X285750Y226060D03*
X285750Y200660D03*
X285750Y175260D03*
X285750Y149860D03*
D11*
X34544Y702310D02*
X21336Y702310D01*
X21336Y676910D02*
X34544Y676910D01*
X97536Y676910D02*
X110744Y676910D01*
X110744Y702310D02*
X97536Y702310D01*
X34544Y651510D02*
X21336Y651510D01*
X21336Y626110D02*
X34544Y626110D01*
X97536Y651510D02*
X110744Y651510D01*
X110744Y626110D02*
X97536Y626110D01*
D17*
X111760Y538480D03*
X60960Y538480D03*
D11*
X148336Y701040D02*
X161544Y701040D01*
X161544Y675640D02*
X148336Y675640D01*
X224536Y675640D02*
X237744Y675640D01*
X237744Y701040D02*
X224536Y701040D01*
X161544Y650240D02*
X148336Y650240D01*
X148336Y624840D02*
X161544Y624840D01*
X224536Y650240D02*
X237744Y650240D01*
X237744Y624840D02*
X224536Y624840D01*
D17*
X111760Y566420D03*
X60960Y566420D03*
D18*
X142240Y594360D03*
X243840Y594360D03*
X147320Y731520D03*
X248920Y731520D03*
X142240Y566420D03*
X243840Y566420D03*
D16*
X275590Y845820D03*
X247650Y845820D03*
X275590Y871220D03*
X247650Y871220D03*
X275590Y896620D03*
X247650Y896620D03*
X275590Y922020D03*
X247650Y922020D03*
X275590Y947420D03*
X247650Y947420D03*
X275590Y972820D03*
X247650Y972820D03*
X275590Y998220D03*
X247650Y998220D03*
X275590Y1023620D03*
X247650Y1023620D03*
D10*
X279400Y703580D03*
X279400Y779780D03*
X25400Y1061720D03*
X25400Y1036320D03*
D18*
X60960Y594360D03*
X111760Y594360D03*
X20320Y731520D03*
X121920Y731520D03*
X20320Y782320D03*
X121920Y782320D03*
X147320Y782320D03*
X248920Y782320D03*
D19*
X33020Y756920D03*
X109220Y756920D03*
X160020Y756920D03*
X236220Y756920D03*
D18*
X142240Y538480D03*
X243840Y538480D03*
D20*
X216408Y312420D02*
X204216Y300228D01*
X266700Y312420D02*
X268224Y312420D01*
X266700Y312420D02*
X216408Y312420D01*
X268224Y312420D02*
X298704Y281940D01*
X298704Y213360D01*
X286512Y201168D01*
X204216Y300228D02*
X203200Y299720D01*
X285750Y200660D02*
X286512Y201168D01*
X182880Y320040D02*
X147828Y320040D01*
X182880Y320040D02*
X203200Y299720D01*
X190500Y21336D02*
X178308Y21336D01*
X190500Y21336D02*
X228600Y59436D01*
X246888Y59436D01*
X259080Y71628D01*
X178308Y21336D02*
X177800Y20320D01*
X259080Y71628D02*
X259080Y72390D01*
X38100Y33528D02*
X25908Y21336D01*
X38100Y33528D02*
X38100Y82296D01*
X39624Y83820D01*
X128016Y83820D01*
X143256Y68580D01*
X143256Y54864D01*
X177800Y20320D01*
X25908Y21336D02*
X25400Y20320D01*
X286512Y192024D02*
X286512Y199644D01*
X286512Y192024D02*
X298704Y179832D01*
X298704Y134112D01*
X286512Y121920D01*
X286512Y199644D02*
X285750Y200660D01*
X285750Y121920D02*
X286512Y121920D01*
X249936Y783336D02*
X249936Y826008D01*
X263652Y839724D01*
X263652Y961644D01*
X274320Y972312D01*
X249936Y783336D02*
X248920Y782320D01*
X274320Y972312D02*
X275590Y972820D01*
X79248Y702564D02*
X28956Y702564D01*
X79248Y702564D02*
X123444Y746760D01*
X227076Y746760D01*
X236220Y755904D01*
X28956Y702564D02*
X27940Y702310D01*
X236220Y755904D02*
X236220Y756920D01*
X266700Y566928D02*
X266700Y312420D01*
X266700Y566928D02*
X295656Y595884D01*
X295656Y685800D02*
X295656Y736092D01*
X295656Y685800D02*
X295656Y595884D01*
X266954Y764794D02*
X249936Y781812D01*
X266954Y764794D02*
X295656Y736092D01*
X249936Y781812D02*
X248920Y782320D01*
D21*
X147828Y320040D03*
X264160Y762000D03*
X261620Y684304D03*
D20*
X294160Y684304D01*
X295656Y685800D01*
X264160Y762000D02*
X266954Y764794D01*
D10*
X25400Y985520D03*
D20*
X128016Y326136D02*
X178308Y326136D01*
X202692Y350520D01*
X128016Y326136D02*
X127000Y325120D01*
X202692Y350520D02*
X203200Y350520D01*
X127000Y325120D02*
X114300Y312420D01*
X39624Y312420D01*
X38100Y313944D01*
X38100Y338328D01*
X25908Y350520D01*
X25400Y350520D01*
X60960Y566928D02*
X83820Y566928D01*
X111252Y594360D01*
X60960Y566928D02*
X60960Y566420D01*
X111252Y594360D02*
X111760Y594360D01*
X179832Y473964D02*
X184404Y473964D01*
X179832Y473964D02*
X153924Y448056D01*
X153924Y332232D01*
X153924Y266700D02*
X153924Y256032D01*
X134112Y236220D01*
D21*
X184404Y473964D03*
X153924Y332232D03*
X153924Y266700D03*
X134112Y236220D03*
D20*
X259080Y539496D02*
X259080Y551688D01*
X259080Y539496D02*
X210312Y490728D01*
X187452Y490728D01*
X161544Y464820D01*
X149352Y464820D01*
X117348Y464820D02*
X13716Y464820D01*
X12192Y463296D01*
X12192Y312420D01*
X24384Y300228D01*
X25400Y299720D01*
D21*
X259080Y551688D03*
X149352Y464820D03*
X117348Y464820D03*
D20*
X217932Y493776D02*
X227076Y493776D01*
X217932Y493776D02*
X211836Y487680D01*
X188976Y487680D01*
X149352Y448056D01*
X149352Y347472D01*
X147828Y345948D01*
X155448Y181356D02*
X161544Y181356D01*
X155448Y181356D02*
X134112Y160020D01*
X39624Y160020D01*
X38100Y161544D01*
X38100Y262128D01*
X25908Y274320D01*
X25400Y274320D01*
D21*
X227076Y493776D03*
X147828Y345948D03*
X161544Y181356D03*
D20*
X275844Y141732D02*
X275844Y138684D01*
X275844Y141732D02*
X272796Y144780D01*
X272796Y263652D01*
X284988Y275844D01*
X285750Y276860D01*
D21*
X275844Y138684D03*
D20*
X202692Y268224D02*
X202692Y274320D01*
X202692Y268224D02*
X184404Y249936D01*
X184404Y103632D01*
X219456Y68580D01*
X219456Y60960D01*
X203200Y274320D02*
X202692Y274320D01*
X28956Y644652D02*
X28956Y650748D01*
X28956Y644652D02*
X45720Y627888D01*
X45720Y559308D01*
X56388Y548640D01*
X88392Y548640D01*
X124968Y512064D01*
X137160Y512064D01*
X163068Y486156D01*
X163068Y475488D01*
X176784Y461772D02*
X176784Y333756D01*
X28956Y650748D02*
X27940Y651510D01*
D21*
X219456Y60960D03*
X163068Y475488D03*
X176784Y461772D03*
X176784Y333756D03*
D20*
X202692Y248412D02*
X202692Y242316D01*
X187452Y227076D01*
X187452Y117348D01*
X233172Y71628D01*
X202692Y248412D02*
X203200Y248920D01*
X233680Y72390D02*
X233172Y71628D01*
X277368Y21336D02*
X284988Y21336D01*
X277368Y21336D02*
X265176Y33528D01*
X245364Y33528D01*
X234696Y22860D01*
X284988Y21336D02*
X285750Y20320D01*
X234696Y22860D02*
X233680Y21590D01*
X128016Y496824D02*
X128016Y502920D01*
X128016Y496824D02*
X143256Y481584D01*
X143256Y359664D01*
X128016Y502920D02*
X127000Y502920D01*
D21*
X143256Y359664D03*
D20*
X216408Y236220D02*
X204216Y224028D01*
X216408Y236220D02*
X265176Y236220D01*
X269748Y231648D01*
X269748Y79248D01*
X271272Y77724D01*
X271272Y59436D01*
X259080Y47244D01*
X203200Y223520D02*
X204216Y224028D01*
X259080Y47244D02*
X259080Y46990D01*
X28956Y498348D02*
X28956Y624840D01*
X28956Y498348D02*
X33528Y493776D01*
X131064Y312420D02*
X134112Y312420D01*
X185928Y260604D01*
X28956Y624840D02*
X27940Y626110D01*
D21*
X33528Y493776D03*
X131064Y312420D03*
X185928Y260604D03*
X137160Y617220D03*
D20*
X143256Y617220D01*
X144780Y615696D01*
X166116Y615696D01*
X170688Y620268D01*
X170688Y629412D01*
X160020Y640080D01*
X135636Y640080D01*
X108204Y667512D01*
X38100Y667512D01*
X28956Y676656D01*
X27940Y676910D01*
X182880Y454152D02*
X182880Y393192D01*
X182880Y454152D02*
X184404Y455676D01*
D21*
X182880Y393192D03*
X184404Y455676D03*
D20*
X153924Y650748D02*
X103632Y701040D01*
X153924Y650748D02*
X154940Y650240D01*
X103632Y701040D02*
X104140Y702310D01*
X248412Y704088D02*
X278892Y704088D01*
X248412Y704088D02*
X242316Y710184D01*
X164592Y710184D01*
X155448Y701040D01*
X278892Y704088D02*
X279400Y703580D01*
X155448Y701040D02*
X154940Y701040D01*
X143256Y539496D02*
X220980Y539496D01*
X237744Y556260D01*
X246888Y556260D01*
X256032Y565404D01*
X256032Y650748D01*
X231140Y675640D01*
X143256Y539496D02*
X142240Y538480D01*
X213360Y624840D02*
X231140Y624840D01*
X213360Y624840D02*
X144780Y556260D01*
X57912Y556260D01*
X51816Y562356D01*
X51816Y598932D01*
X103632Y650748D01*
X104140Y651510D01*
D10*
X25400Y960120D03*
D20*
X60960Y594360D02*
X99060Y594360D01*
X124968Y620268D02*
X129540Y624840D01*
X124968Y620268D02*
X99060Y594360D01*
X129540Y624840D02*
X154940Y624840D01*
X38100Y947928D02*
X25908Y960120D01*
X38100Y947928D02*
X38100Y923544D01*
X39624Y922020D01*
X214884Y922020D01*
X234696Y902208D01*
X234696Y858012D01*
X246888Y845820D01*
X25908Y960120D02*
X25400Y960120D01*
X124968Y620268D02*
X134112Y611124D01*
X166116Y611124D01*
X173736Y618744D01*
X173736Y676656D01*
X158496Y691896D01*
X144780Y691896D01*
X138684Y697992D01*
X138684Y704088D01*
X178308Y743712D01*
X236220Y743712D01*
X246888Y754380D01*
X246888Y766572D01*
X236220Y777240D01*
X236220Y835152D01*
X246888Y845820D01*
X247650Y845820D01*
D10*
X25400Y1010920D03*
D20*
X112776Y566928D02*
X128016Y566928D01*
X214884Y653796D01*
X214884Y685800D01*
X230124Y701040D01*
X112776Y566928D02*
X111760Y566420D01*
X230124Y701040D02*
X231140Y701040D01*
X38100Y998220D02*
X25400Y1010920D01*
X38100Y998220D02*
X214884Y998220D01*
X234696Y978408D01*
X234696Y960120D01*
X246888Y947928D01*
X247650Y947420D01*
X257556Y701040D02*
X231140Y701040D01*
X257556Y701040D02*
X268224Y690372D01*
X291084Y690372D01*
X292608Y691896D01*
X239268Y778764D02*
X239268Y819912D01*
X260604Y841248D01*
X260604Y934212D01*
X248412Y946404D01*
X247650Y947420D01*
X239268Y778764D02*
X256540Y761492D01*
X256540Y756920D01*
X292608Y720852D01*
X292608Y691896D01*
X231648Y649224D02*
X231648Y644652D01*
X252984Y623316D01*
X252984Y576072D01*
X243840Y566928D01*
X231648Y649224D02*
X231140Y650240D01*
X243840Y566928D02*
X243840Y566420D01*
D10*
X50800Y20320D03*
X76200Y20320D03*
X101600Y20320D03*
X101600Y45720D03*
X76200Y45720D03*
X50800Y45720D03*
X50800Y71120D03*
X76200Y71120D03*
X101600Y71120D03*
X101600Y96520D03*
X76200Y96520D03*
X50800Y96520D03*
X50800Y121920D03*
X76200Y121920D03*
X101600Y121920D03*
X101600Y147320D03*
X76200Y147320D03*
X50800Y147320D03*
X50800Y172720D03*
X76200Y172720D03*
X101600Y172720D03*
X101600Y198120D03*
X76200Y198120D03*
X50800Y198120D03*
X50800Y223520D03*
X76200Y223520D03*
X101600Y223520D03*
X101600Y248920D03*
X76200Y248920D03*
X50800Y248920D03*
X50800Y274320D03*
X76200Y274320D03*
X101600Y274320D03*
X101600Y299720D03*
X76200Y299720D03*
X50800Y299720D03*
X50800Y325120D03*
X76200Y325120D03*
X101600Y325120D03*
X101600Y350520D03*
X76200Y350520D03*
X50800Y350520D03*
X50800Y375920D03*
X76200Y375920D03*
X101600Y375920D03*
X101600Y401320D03*
X76200Y401320D03*
X50800Y401320D03*
X50800Y426720D03*
X76200Y426720D03*
X101600Y426720D03*
X101600Y452120D03*
X76200Y452120D03*
X50800Y452120D03*
X25400Y452120D03*
X25400Y477520D03*
X50800Y477520D03*
X76200Y477520D03*
X101600Y477520D03*
X228600Y172720D03*
X254000Y172720D03*
X254000Y198120D03*
X228600Y198120D03*
X228600Y223520D03*
X254000Y223520D03*
X254000Y248920D03*
X228600Y248920D03*
X228600Y274320D03*
X254000Y274320D03*
X254000Y299720D03*
X228600Y299720D03*
X228600Y325120D03*
X254000Y325120D03*
X254000Y350520D03*
X228600Y350520D03*
X279400Y350520D03*
X279400Y375920D03*
X254000Y375920D03*
X228600Y375920D03*
X228600Y401320D03*
X254000Y401320D03*
X279400Y401320D03*
X279400Y426720D03*
X254000Y426720D03*
X228600Y426720D03*
X228600Y452120D03*
X254000Y452120D03*
X279400Y452120D03*
X279400Y477520D03*
X254000Y477520D03*
X228600Y477520D03*
X50800Y1061720D03*
X76200Y1061720D03*
X101600Y1061720D03*
X127000Y1061720D03*
X152400Y1061720D03*
X177800Y1061720D03*
X203200Y1061720D03*
X203200Y1036320D03*
X177800Y1036320D03*
X152400Y1036320D03*
X127000Y1036320D03*
X101600Y1036320D03*
X76200Y1036320D03*
X50800Y1036320D03*
X50800Y1010920D03*
X76200Y1010920D03*
X101600Y1010920D03*
X127000Y1010920D03*
X152400Y1010920D03*
X177800Y1010920D03*
X203200Y1010920D03*
X50800Y960120D03*
X50800Y985520D03*
X76200Y985520D03*
X101600Y985520D03*
X127000Y985520D03*
X152400Y985520D03*
X177800Y985520D03*
X203200Y985520D03*
X203200Y960120D03*
X177800Y960120D03*
X152400Y960120D03*
X127000Y960120D03*
X101600Y960120D03*
X76200Y960120D03*
X25400Y934720D03*
X50800Y934720D03*
X76200Y934720D03*
X101600Y934720D03*
X127000Y934720D03*
X152400Y934720D03*
X177800Y934720D03*
X203200Y934720D03*
X203200Y909320D03*
X177800Y909320D03*
X152400Y909320D03*
X127000Y909320D03*
X101600Y909320D03*
X76200Y909320D03*
X50800Y909320D03*
X50800Y883920D03*
X76200Y883920D03*
X101600Y883920D03*
X127000Y883920D03*
X152400Y883920D03*
X177800Y883920D03*
X203200Y883920D03*
X203200Y858520D03*
X177800Y858520D03*
X152400Y858520D03*
X127000Y858520D03*
X101600Y858520D03*
X76200Y858520D03*
X50800Y858520D03*
X76200Y833120D03*
X101600Y833120D03*
X127000Y833120D03*
X152400Y833120D03*
X177800Y833120D03*
X203200Y833120D03*
X50800Y833120D03*
X279400Y627380D03*
D20*
X278892Y626364D02*
X278892Y583692D01*
X243840Y548640D01*
X234696Y548640D01*
X214884Y528828D01*
X134112Y528828D01*
X109728Y553212D01*
X56388Y553212D01*
X48768Y560832D01*
X48768Y650748D01*
X32004Y667512D01*
X16764Y667512D01*
X12192Y672084D01*
X12192Y723900D01*
X19812Y731520D01*
X278892Y626364D02*
X279400Y627380D01*
X20320Y731520D02*
X19812Y731520D01*
D10*
X279400Y325120D03*
M02*
