M48
;GenerationSoftware,Autodesk,EAGLE,9.2.2*%
;CreationDate,2019-06-05T18:16:40Z*%
FMAT,2
ICI,OFF
METRIC,TZ,000.000
T6C0.350
T5C0.610
T4C0.813
T3C0.900
T2C1.016
%
G90
M71
T2
X20320Y93472
X20320Y98552
X20320Y96012
X17780Y96012
X15240Y96012
X12700Y96012
X10160Y96012
X7620Y96012
X2540Y93472
X5080Y93472
X7620Y93472
X10160Y93472
X12700Y93472
X15240Y93472
X17780Y93472
X17780Y98552
X20320Y90932
X17780Y90932
X15240Y90932
X12700Y90932
X10160Y90932
X7620Y90932
X5080Y90932
X5080Y88392
X7620Y88392
X10160Y88392
X12700Y88392
X15240Y88392
X17780Y88392
X20320Y88392
X5080Y103632
X25400Y47752
X22860Y47752
X5080Y106172
X7620Y106172
X10160Y106172
X12700Y106172
X15240Y106172
X17780Y106172
X20320Y106172
X20320Y103632
X17780Y103632
X15240Y103632
X12700Y103632
X7620Y103632
X20320Y85852
X5080Y101092
X7620Y101092
X10160Y101092
X12700Y101092
X15240Y101092
X17780Y101092
X20320Y101092
X5080Y96012
X5080Y98552
X7620Y98552
X10160Y98552
X12700Y98552
X15240Y98552
X24765Y84582
X2540Y90932
X2540Y42672
X2540Y88392
X2540Y85852
X2540Y83312
X2540Y40132
X2540Y37592
X27559Y94742
X24765Y92202
X27559Y92202
X24765Y89662
X27559Y89662
X24765Y87122
X27559Y87122
X2540Y2032
X27559Y84582
X23368Y7239
X25908Y7239
X23368Y4699
X25908Y4699
X23368Y2159
X25908Y2159
X28575Y14986
X28575Y17526
X28575Y20066
X28575Y22606
X28575Y25146
X28575Y27686
X27940Y32512
X17780Y85852
X15240Y85852
X12700Y85852
X10160Y85852
X7620Y85852
X5080Y85852
X7620Y83312
X10160Y83312
X12700Y83312
X15240Y83312
X17780Y83312
X20320Y83312
X5080Y83312
X27940Y62738
X10160Y103632
X2540Y35052
X2540Y32512
X2540Y29972
X2540Y27432
X2540Y24892
X2540Y22352
X2540Y19812
X2540Y17272
X2540Y14732
X2540Y12192
X2540Y9652
X2540Y7112
X2540Y4572
X5080Y22352
X5080Y12192
X7620Y12192
X10160Y12192
X10160Y14732
X7620Y14732
X5080Y14732
X5080Y17272
X7620Y17272
X10160Y17272
X10160Y19812
X7620Y19812
X5080Y19812
X5080Y9652
X7620Y22352
X10160Y22352
X10160Y24892
X7620Y24892
X5080Y24892
X5080Y27432
X7620Y27432
X10160Y27432
X10160Y29972
X7620Y29972
X5080Y29972
X5080Y32512
X2540Y96012
X2540Y98552
X2540Y103632
X2540Y106172
X27940Y77978
X27940Y70358
X24765Y102362
X27559Y102362
X24765Y99822
X27559Y99822
X24765Y97282
X27559Y97282
X24765Y94742
X27940Y45212
X2540Y101092
X5080Y2032
X7620Y2032
X10160Y2032
X10160Y4572
X7620Y4572
X5080Y4572
X5080Y7112
X7620Y7112
X10160Y7112
X10160Y9652
X7620Y9652
X27940Y35052
X22860Y22352
X25400Y22352
X25400Y24892
X22860Y24892
X22860Y27432
X25400Y27432
X25400Y29972
X22860Y29972
X22860Y32512
X25400Y32512
X25400Y35052
X22860Y35052
X10160Y32512
X27940Y37592
X25400Y37592
X22860Y37592
X22860Y40132
X25400Y40132
X27940Y40132
X27940Y42672
X25400Y42672
X22860Y42672
X22860Y45212
X25400Y45212
X27940Y47752
X25400Y19812
X7620Y32512
X10160Y35052
X7620Y35052
X5080Y35052
X5080Y37592
X7620Y37592
X10160Y37592
X10160Y40132
X7620Y40132
X5080Y40132
X5080Y42672
X7620Y42672
X10160Y42672
X10160Y45212
X7620Y45212
X5080Y45212
X2540Y45212
X2540Y47752
X5080Y47752
X7620Y47752
X10160Y47752
X22860Y17272
X25400Y17272
X22860Y19812
T3
X10922Y75692
X3302Y75692
X23622Y75692
X16002Y75692
T4
X12192Y78232
X10414Y62611
X10414Y65151
X2794Y62611
X2794Y65151
X10414Y70231
X2032Y73152
X12192Y73152
X2032Y78232
X14732Y78232
X24892Y78232
X10414Y67691
X2794Y67691
X2794Y70231
X14224Y53848
X11176Y56642
X24384Y53848
X6096Y59436
X11176Y59436
X24384Y56642
X14224Y56642
X24892Y73152
X14732Y73152
X24384Y59436
X14224Y59436
X6096Y56642
X11176Y53848
X23114Y62484
X23114Y65024
X15494Y62484
X15494Y65024
X23114Y70104
X23114Y67564
X15494Y67564
X15494Y70104
X6096Y53848
X12700Y27432
X20320Y27432
X20320Y24892
X20320Y22352
X20320Y19812
X20320Y17272
X12700Y17272
X12700Y19812
X12700Y22352
X12700Y24892
X15240Y7112
X12700Y29972
X12700Y32512
X12700Y35052
X12700Y37592
X12700Y40132
X12700Y42672
X12700Y45212
X12700Y47752
X12700Y50292
X28575Y12192
X12700Y2032
X12700Y7112
X15240Y2032
X20320Y29972
X17780Y7112
X17780Y2032
X20320Y7112
X20320Y2032
X28575Y2032
X20320Y50292
X20320Y47752
X20320Y45212
X20320Y42672
X20320Y40132
X20320Y37592
X20320Y35052
X20320Y32512
T5
X14986Y12192
X20066Y12192
T6
X14783Y32004
X26416Y76200
X26162Y68430
X18440Y47396
X15392Y33223
X15392Y26670
X13411Y23622
X25908Y55169
X14935Y46482
X11735Y46482
X22708Y49378
X14783Y34595
X16154Y18136
X27584Y13868
X21946Y6096
X16307Y47549
X17678Y46177
X17678Y33376
X14326Y35966
X3353Y49378
X13106Y31242
X18593Y26060
X13716Y61722
X18288Y39319
X18440Y45568
M30