G04 EAGLE Gerber RS-274X export*
G75*
%MOMM*%
%FSLAX34Y34*%
%LPD*%
%INTop Copper*%
%IPPOS*%
%AMOC8*
5,1,8,0,0,1.08239X$1,22.5*%
G01*
%ADD10R,2.032000X2.032000*%
%ADD11C,1.320800*%
%ADD12P,1.429621X8X292.500000*%
%ADD13P,1.429621X8X112.500000*%
%ADD14P,2.034460X8X292.500000*%
%ADD15C,1.117600*%
%ADD16C,1.879600*%
%ADD17P,1.429621X8X202.500000*%
%ADD18P,1.429621X8X22.500000*%
%ADD19C,0.030478*%
%ADD20C,1.408000*%
%ADD21R,1.676400X0.762000*%
%ADD22C,0.152400*%
%ADD23C,0.756400*%

G36*
X285785Y577222D02*
X285785Y577222D01*
X285833Y577221D01*
X286490Y577308D01*
X286533Y577321D01*
X286650Y577351D01*
X287263Y577604D01*
X287300Y577629D01*
X287406Y577687D01*
X287932Y578091D01*
X287962Y578124D01*
X288049Y578208D01*
X288453Y578734D01*
X288474Y578774D01*
X288476Y578777D01*
X288504Y578812D01*
X288514Y578840D01*
X288536Y578877D01*
X288789Y579490D01*
X288799Y579534D01*
X288832Y579650D01*
X288919Y580307D01*
X288917Y580343D01*
X288924Y580390D01*
X288924Y586232D01*
X288913Y586297D01*
X288911Y586363D01*
X288893Y586406D01*
X288885Y586453D01*
X288851Y586510D01*
X288826Y586570D01*
X288795Y586605D01*
X288770Y586646D01*
X288719Y586688D01*
X288675Y586736D01*
X288633Y586758D01*
X288596Y586787D01*
X288534Y586808D01*
X288475Y586839D01*
X288421Y586847D01*
X288384Y586859D01*
X288344Y586858D01*
X288290Y586866D01*
X271780Y586866D01*
X271715Y586855D01*
X271649Y586853D01*
X271606Y586835D01*
X271559Y586827D01*
X271502Y586793D01*
X271442Y586768D01*
X271407Y586737D01*
X271366Y586712D01*
X271325Y586661D01*
X271276Y586617D01*
X271254Y586575D01*
X271225Y586538D01*
X271204Y586476D01*
X271173Y586417D01*
X271165Y586363D01*
X271153Y586326D01*
X271154Y586286D01*
X271146Y586232D01*
X271146Y579120D01*
X271153Y579079D01*
X271154Y579021D01*
X271216Y578628D01*
X271218Y578623D01*
X271218Y578617D01*
X271277Y578440D01*
X271457Y578086D01*
X271461Y578081D01*
X271463Y578076D01*
X271574Y577925D01*
X271855Y577644D01*
X271860Y577641D01*
X271863Y577636D01*
X272016Y577527D01*
X272370Y577347D01*
X272375Y577345D01*
X272380Y577342D01*
X272558Y577286D01*
X272951Y577224D01*
X272992Y577224D01*
X273050Y577216D01*
X285750Y577216D01*
X285785Y577222D01*
G37*
G36*
X285785Y549282D02*
X285785Y549282D01*
X285833Y549281D01*
X286490Y549368D01*
X286533Y549381D01*
X286650Y549411D01*
X287263Y549664D01*
X287300Y549689D01*
X287406Y549747D01*
X287932Y550151D01*
X287962Y550184D01*
X288049Y550268D01*
X288453Y550794D01*
X288474Y550834D01*
X288476Y550837D01*
X288504Y550872D01*
X288514Y550900D01*
X288536Y550937D01*
X288789Y551550D01*
X288799Y551594D01*
X288832Y551710D01*
X288919Y552367D01*
X288917Y552403D01*
X288924Y552450D01*
X288924Y558292D01*
X288913Y558357D01*
X288911Y558423D01*
X288893Y558466D01*
X288885Y558513D01*
X288851Y558570D01*
X288826Y558630D01*
X288795Y558665D01*
X288770Y558706D01*
X288719Y558748D01*
X288675Y558796D01*
X288633Y558818D01*
X288596Y558847D01*
X288534Y558868D01*
X288475Y558899D01*
X288421Y558907D01*
X288384Y558919D01*
X288344Y558918D01*
X288290Y558926D01*
X271780Y558926D01*
X271715Y558915D01*
X271649Y558913D01*
X271606Y558895D01*
X271559Y558887D01*
X271502Y558853D01*
X271442Y558828D01*
X271407Y558797D01*
X271366Y558772D01*
X271325Y558721D01*
X271276Y558677D01*
X271254Y558635D01*
X271225Y558598D01*
X271204Y558536D01*
X271173Y558477D01*
X271165Y558423D01*
X271153Y558386D01*
X271154Y558346D01*
X271146Y558292D01*
X271146Y551180D01*
X271153Y551139D01*
X271154Y551081D01*
X271216Y550688D01*
X271218Y550683D01*
X271218Y550677D01*
X271277Y550500D01*
X271457Y550146D01*
X271461Y550141D01*
X271463Y550136D01*
X271574Y549985D01*
X271855Y549704D01*
X271860Y549701D01*
X271863Y549696D01*
X272016Y549587D01*
X272370Y549407D01*
X272375Y549405D01*
X272380Y549402D01*
X272558Y549346D01*
X272951Y549284D01*
X272992Y549284D01*
X273050Y549276D01*
X285750Y549276D01*
X285785Y549282D01*
G37*
G36*
X285785Y521342D02*
X285785Y521342D01*
X285833Y521341D01*
X286490Y521428D01*
X286533Y521441D01*
X286650Y521471D01*
X287263Y521724D01*
X287300Y521749D01*
X287406Y521807D01*
X287932Y522211D01*
X287962Y522244D01*
X288049Y522328D01*
X288453Y522854D01*
X288474Y522894D01*
X288476Y522897D01*
X288504Y522932D01*
X288514Y522960D01*
X288536Y522997D01*
X288789Y523610D01*
X288799Y523654D01*
X288832Y523770D01*
X288919Y524427D01*
X288917Y524463D01*
X288924Y524510D01*
X288924Y530352D01*
X288913Y530417D01*
X288911Y530483D01*
X288893Y530526D01*
X288885Y530573D01*
X288851Y530630D01*
X288826Y530690D01*
X288795Y530725D01*
X288770Y530766D01*
X288719Y530808D01*
X288675Y530856D01*
X288633Y530878D01*
X288596Y530907D01*
X288534Y530928D01*
X288475Y530959D01*
X288421Y530967D01*
X288384Y530979D01*
X288344Y530978D01*
X288290Y530986D01*
X271780Y530986D01*
X271715Y530975D01*
X271649Y530973D01*
X271606Y530955D01*
X271559Y530947D01*
X271502Y530913D01*
X271442Y530888D01*
X271407Y530857D01*
X271366Y530832D01*
X271325Y530781D01*
X271276Y530737D01*
X271254Y530695D01*
X271225Y530658D01*
X271204Y530596D01*
X271173Y530537D01*
X271165Y530483D01*
X271153Y530446D01*
X271154Y530406D01*
X271146Y530352D01*
X271146Y523240D01*
X271153Y523199D01*
X271154Y523141D01*
X271216Y522748D01*
X271218Y522743D01*
X271218Y522737D01*
X271277Y522560D01*
X271457Y522206D01*
X271461Y522201D01*
X271463Y522196D01*
X271574Y522045D01*
X271855Y521764D01*
X271860Y521761D01*
X271863Y521756D01*
X272016Y521647D01*
X272370Y521467D01*
X272375Y521465D01*
X272380Y521462D01*
X272558Y521406D01*
X272951Y521344D01*
X272992Y521344D01*
X273050Y521336D01*
X285750Y521336D01*
X285785Y521342D01*
G37*
G36*
X287593Y755027D02*
X287593Y755027D01*
X287659Y755029D01*
X287702Y755047D01*
X287749Y755055D01*
X287806Y755089D01*
X287866Y755114D01*
X287901Y755145D01*
X287942Y755170D01*
X287984Y755221D01*
X288032Y755265D01*
X288054Y755307D01*
X288083Y755344D01*
X288104Y755406D01*
X288135Y755465D01*
X288143Y755519D01*
X288155Y755556D01*
X288154Y755596D01*
X288162Y755650D01*
X288162Y762762D01*
X288155Y762803D01*
X288154Y762861D01*
X288092Y763254D01*
X288090Y763259D01*
X288090Y763265D01*
X288031Y763442D01*
X287851Y763796D01*
X287847Y763801D01*
X287845Y763806D01*
X287734Y763957D01*
X287453Y764238D01*
X287448Y764241D01*
X287445Y764246D01*
X287292Y764355D01*
X286938Y764535D01*
X286933Y764537D01*
X286928Y764540D01*
X286750Y764596D01*
X286357Y764658D01*
X286316Y764658D01*
X286258Y764666D01*
X273558Y764666D01*
X273523Y764660D01*
X273475Y764661D01*
X272818Y764574D01*
X272775Y764561D01*
X272658Y764531D01*
X272045Y764278D01*
X272008Y764254D01*
X271902Y764195D01*
X271376Y763791D01*
X271346Y763758D01*
X271331Y763744D01*
X271327Y763741D01*
X271322Y763736D01*
X271259Y763674D01*
X270855Y763148D01*
X270834Y763108D01*
X270772Y763005D01*
X270519Y762392D01*
X270509Y762348D01*
X270476Y762232D01*
X270389Y761575D01*
X270391Y761540D01*
X270384Y761492D01*
X270384Y755650D01*
X270395Y755585D01*
X270397Y755519D01*
X270415Y755476D01*
X270423Y755429D01*
X270457Y755372D01*
X270482Y755312D01*
X270513Y755277D01*
X270538Y755236D01*
X270589Y755195D01*
X270633Y755146D01*
X270675Y755124D01*
X270712Y755095D01*
X270774Y755074D01*
X270833Y755043D01*
X270887Y755035D01*
X270924Y755023D01*
X270964Y755024D01*
X271018Y755016D01*
X287528Y755016D01*
X287593Y755027D01*
G37*
G36*
X287593Y678827D02*
X287593Y678827D01*
X287659Y678829D01*
X287702Y678847D01*
X287749Y678855D01*
X287806Y678889D01*
X287866Y678914D01*
X287901Y678945D01*
X287942Y678970D01*
X287984Y679021D01*
X288032Y679065D01*
X288054Y679107D01*
X288083Y679144D01*
X288104Y679206D01*
X288135Y679265D01*
X288143Y679319D01*
X288155Y679356D01*
X288154Y679396D01*
X288162Y679450D01*
X288162Y686562D01*
X288155Y686603D01*
X288154Y686661D01*
X288092Y687054D01*
X288090Y687059D01*
X288090Y687065D01*
X288031Y687242D01*
X287851Y687596D01*
X287847Y687601D01*
X287845Y687606D01*
X287734Y687757D01*
X287453Y688038D01*
X287448Y688041D01*
X287445Y688046D01*
X287292Y688155D01*
X286938Y688335D01*
X286933Y688337D01*
X286928Y688340D01*
X286750Y688396D01*
X286357Y688458D01*
X286316Y688458D01*
X286258Y688466D01*
X273558Y688466D01*
X273523Y688460D01*
X273475Y688461D01*
X272818Y688374D01*
X272775Y688361D01*
X272658Y688331D01*
X272045Y688078D01*
X272008Y688054D01*
X271902Y687995D01*
X271376Y687591D01*
X271346Y687558D01*
X271331Y687544D01*
X271327Y687541D01*
X271322Y687536D01*
X271259Y687474D01*
X270855Y686948D01*
X270834Y686908D01*
X270772Y686805D01*
X270519Y686192D01*
X270509Y686148D01*
X270476Y686032D01*
X270389Y685375D01*
X270391Y685340D01*
X270384Y685292D01*
X270384Y679450D01*
X270395Y679385D01*
X270397Y679319D01*
X270415Y679276D01*
X270423Y679229D01*
X270457Y679172D01*
X270482Y679112D01*
X270513Y679077D01*
X270538Y679036D01*
X270589Y678995D01*
X270633Y678946D01*
X270675Y678924D01*
X270712Y678895D01*
X270774Y678874D01*
X270833Y678843D01*
X270887Y678835D01*
X270924Y678823D01*
X270964Y678824D01*
X271018Y678816D01*
X287528Y678816D01*
X287593Y678827D01*
G37*
G36*
X38165Y580275D02*
X38165Y580275D01*
X38231Y580277D01*
X38274Y580295D01*
X38321Y580303D01*
X38378Y580337D01*
X38438Y580362D01*
X38473Y580393D01*
X38514Y580418D01*
X38556Y580469D01*
X38604Y580513D01*
X38626Y580555D01*
X38655Y580592D01*
X38676Y580654D01*
X38707Y580713D01*
X38715Y580767D01*
X38727Y580804D01*
X38726Y580844D01*
X38734Y580898D01*
X38734Y588010D01*
X38727Y588051D01*
X38726Y588109D01*
X38664Y588502D01*
X38662Y588507D01*
X38662Y588513D01*
X38603Y588690D01*
X38423Y589044D01*
X38419Y589049D01*
X38417Y589054D01*
X38306Y589205D01*
X38025Y589486D01*
X38020Y589489D01*
X38017Y589494D01*
X37864Y589603D01*
X37510Y589783D01*
X37505Y589785D01*
X37500Y589788D01*
X37322Y589844D01*
X36929Y589906D01*
X36888Y589906D01*
X36830Y589914D01*
X24130Y589914D01*
X24095Y589908D01*
X24047Y589909D01*
X23390Y589822D01*
X23347Y589809D01*
X23230Y589779D01*
X22617Y589526D01*
X22580Y589502D01*
X22474Y589443D01*
X21948Y589039D01*
X21918Y589006D01*
X21903Y588992D01*
X21899Y588989D01*
X21894Y588984D01*
X21831Y588922D01*
X21427Y588396D01*
X21406Y588356D01*
X21344Y588253D01*
X21091Y587640D01*
X21081Y587596D01*
X21048Y587480D01*
X20961Y586823D01*
X20963Y586788D01*
X20956Y586740D01*
X20956Y580898D01*
X20967Y580833D01*
X20969Y580767D01*
X20987Y580724D01*
X20995Y580677D01*
X21029Y580620D01*
X21054Y580560D01*
X21085Y580525D01*
X21110Y580484D01*
X21161Y580443D01*
X21205Y580394D01*
X21247Y580372D01*
X21284Y580343D01*
X21346Y580322D01*
X21405Y580291D01*
X21459Y580283D01*
X21496Y580271D01*
X21536Y580272D01*
X21590Y580264D01*
X38100Y580264D01*
X38165Y580275D01*
G37*
G36*
X285023Y734194D02*
X285023Y734194D01*
X285071Y734193D01*
X285728Y734280D01*
X285771Y734293D01*
X285888Y734323D01*
X286501Y734576D01*
X286538Y734601D01*
X286644Y734659D01*
X287170Y735063D01*
X287200Y735096D01*
X287287Y735180D01*
X287691Y735706D01*
X287712Y735746D01*
X287714Y735749D01*
X287742Y735784D01*
X287751Y735812D01*
X287774Y735849D01*
X288027Y736462D01*
X288037Y736506D01*
X288070Y736622D01*
X288157Y737279D01*
X288155Y737315D01*
X288162Y737362D01*
X288162Y743204D01*
X288151Y743269D01*
X288149Y743335D01*
X288131Y743378D01*
X288123Y743425D01*
X288089Y743482D01*
X288064Y743542D01*
X288033Y743577D01*
X288008Y743618D01*
X287957Y743660D01*
X287913Y743708D01*
X287871Y743730D01*
X287834Y743759D01*
X287772Y743780D01*
X287713Y743811D01*
X287659Y743819D01*
X287622Y743831D01*
X287582Y743830D01*
X287528Y743838D01*
X271018Y743838D01*
X270953Y743827D01*
X270887Y743825D01*
X270844Y743807D01*
X270797Y743799D01*
X270740Y743765D01*
X270680Y743740D01*
X270645Y743709D01*
X270604Y743684D01*
X270563Y743633D01*
X270514Y743589D01*
X270492Y743547D01*
X270463Y743510D01*
X270442Y743448D01*
X270411Y743389D01*
X270403Y743335D01*
X270391Y743298D01*
X270392Y743258D01*
X270384Y743204D01*
X270384Y737362D01*
X270390Y737327D01*
X270389Y737279D01*
X270476Y736622D01*
X270481Y736606D01*
X270481Y736594D01*
X270493Y736566D01*
X270519Y736462D01*
X270772Y735849D01*
X270797Y735812D01*
X270805Y735796D01*
X270823Y735752D01*
X270840Y735734D01*
X270855Y735706D01*
X271259Y735180D01*
X271292Y735150D01*
X271376Y735063D01*
X271520Y734952D01*
X271902Y734659D01*
X271942Y734638D01*
X272045Y734576D01*
X272658Y734323D01*
X272702Y734313D01*
X272818Y734280D01*
X273475Y734193D01*
X273511Y734195D01*
X273558Y734188D01*
X284988Y734188D01*
X285023Y734194D01*
G37*
G36*
X285023Y657994D02*
X285023Y657994D01*
X285071Y657993D01*
X285728Y658080D01*
X285771Y658093D01*
X285888Y658123D01*
X286501Y658376D01*
X286538Y658401D01*
X286644Y658459D01*
X287170Y658863D01*
X287200Y658896D01*
X287287Y658980D01*
X287691Y659506D01*
X287712Y659546D01*
X287714Y659549D01*
X287742Y659584D01*
X287751Y659612D01*
X287774Y659649D01*
X288027Y660262D01*
X288037Y660306D01*
X288070Y660422D01*
X288157Y661079D01*
X288155Y661115D01*
X288162Y661162D01*
X288162Y667004D01*
X288151Y667069D01*
X288149Y667135D01*
X288131Y667178D01*
X288123Y667225D01*
X288089Y667282D01*
X288064Y667342D01*
X288033Y667377D01*
X288008Y667418D01*
X287957Y667460D01*
X287913Y667508D01*
X287871Y667530D01*
X287834Y667559D01*
X287772Y667580D01*
X287713Y667611D01*
X287659Y667619D01*
X287622Y667631D01*
X287582Y667630D01*
X287528Y667638D01*
X271018Y667638D01*
X270953Y667627D01*
X270887Y667625D01*
X270844Y667607D01*
X270797Y667599D01*
X270740Y667565D01*
X270680Y667540D01*
X270645Y667509D01*
X270604Y667484D01*
X270563Y667433D01*
X270514Y667389D01*
X270492Y667347D01*
X270463Y667310D01*
X270442Y667248D01*
X270411Y667189D01*
X270403Y667135D01*
X270391Y667098D01*
X270392Y667058D01*
X270384Y667004D01*
X270384Y661162D01*
X270390Y661127D01*
X270389Y661079D01*
X270476Y660422D01*
X270481Y660406D01*
X270481Y660394D01*
X270493Y660366D01*
X270519Y660262D01*
X270772Y659649D01*
X270797Y659612D01*
X270805Y659596D01*
X270823Y659552D01*
X270840Y659534D01*
X270855Y659506D01*
X271259Y658980D01*
X271292Y658950D01*
X271376Y658863D01*
X271520Y658752D01*
X271902Y658459D01*
X271942Y658438D01*
X272045Y658376D01*
X272658Y658123D01*
X272702Y658113D01*
X272818Y658080D01*
X273475Y657993D01*
X273511Y657995D01*
X273558Y657988D01*
X284988Y657988D01*
X285023Y657994D01*
G37*
G36*
X35595Y568332D02*
X35595Y568332D01*
X35643Y568331D01*
X36300Y568418D01*
X36343Y568431D01*
X36460Y568461D01*
X37073Y568714D01*
X37110Y568739D01*
X37216Y568797D01*
X37742Y569201D01*
X37772Y569234D01*
X37859Y569318D01*
X38263Y569844D01*
X38284Y569884D01*
X38286Y569887D01*
X38314Y569922D01*
X38323Y569950D01*
X38346Y569987D01*
X38599Y570600D01*
X38609Y570644D01*
X38642Y570760D01*
X38729Y571417D01*
X38727Y571453D01*
X38734Y571500D01*
X38734Y577342D01*
X38723Y577407D01*
X38721Y577473D01*
X38703Y577516D01*
X38695Y577563D01*
X38661Y577620D01*
X38636Y577680D01*
X38605Y577715D01*
X38580Y577756D01*
X38529Y577798D01*
X38485Y577846D01*
X38443Y577868D01*
X38406Y577897D01*
X38344Y577918D01*
X38285Y577949D01*
X38231Y577957D01*
X38194Y577969D01*
X38154Y577968D01*
X38100Y577976D01*
X21590Y577976D01*
X21525Y577965D01*
X21459Y577963D01*
X21416Y577945D01*
X21369Y577937D01*
X21312Y577903D01*
X21252Y577878D01*
X21217Y577847D01*
X21176Y577822D01*
X21135Y577771D01*
X21086Y577727D01*
X21064Y577685D01*
X21035Y577648D01*
X21014Y577586D01*
X20983Y577527D01*
X20975Y577473D01*
X20963Y577436D01*
X20964Y577396D01*
X20956Y577342D01*
X20956Y571500D01*
X20962Y571465D01*
X20961Y571417D01*
X21048Y570760D01*
X21053Y570744D01*
X21053Y570732D01*
X21065Y570704D01*
X21091Y570600D01*
X21344Y569987D01*
X21369Y569950D01*
X21377Y569934D01*
X21395Y569890D01*
X21412Y569872D01*
X21427Y569844D01*
X21831Y569318D01*
X21864Y569288D01*
X21948Y569201D01*
X22092Y569090D01*
X22474Y568797D01*
X22514Y568776D01*
X22617Y568714D01*
X23230Y568461D01*
X23274Y568451D01*
X23390Y568418D01*
X24047Y568331D01*
X24083Y568333D01*
X24130Y568326D01*
X35560Y568326D01*
X35595Y568332D01*
G37*
G36*
X288355Y589165D02*
X288355Y589165D01*
X288421Y589167D01*
X288464Y589185D01*
X288511Y589193D01*
X288568Y589227D01*
X288628Y589252D01*
X288663Y589283D01*
X288704Y589308D01*
X288746Y589359D01*
X288794Y589403D01*
X288816Y589445D01*
X288845Y589482D01*
X288866Y589544D01*
X288897Y589603D01*
X288905Y589657D01*
X288917Y589694D01*
X288916Y589734D01*
X288924Y589788D01*
X288924Y595630D01*
X288918Y595665D01*
X288919Y595713D01*
X288832Y596370D01*
X288819Y596413D01*
X288789Y596530D01*
X288536Y597143D01*
X288512Y597180D01*
X288453Y597286D01*
X288049Y597812D01*
X288016Y597842D01*
X287932Y597929D01*
X287406Y598333D01*
X287366Y598354D01*
X287263Y598416D01*
X286650Y598669D01*
X286606Y598679D01*
X286490Y598712D01*
X285833Y598799D01*
X285798Y598797D01*
X285750Y598804D01*
X274320Y598804D01*
X274285Y598798D01*
X274237Y598799D01*
X273580Y598712D01*
X273537Y598699D01*
X273420Y598669D01*
X272807Y598416D01*
X272770Y598392D01*
X272664Y598333D01*
X272138Y597929D01*
X272108Y597896D01*
X272093Y597881D01*
X272089Y597879D01*
X272084Y597874D01*
X272021Y597812D01*
X271617Y597286D01*
X271596Y597246D01*
X271534Y597143D01*
X271281Y596530D01*
X271271Y596486D01*
X271238Y596370D01*
X271151Y595713D01*
X271153Y595678D01*
X271146Y595630D01*
X271146Y589788D01*
X271157Y589723D01*
X271159Y589657D01*
X271177Y589614D01*
X271185Y589567D01*
X271219Y589510D01*
X271244Y589450D01*
X271275Y589415D01*
X271300Y589374D01*
X271351Y589333D01*
X271395Y589284D01*
X271437Y589262D01*
X271474Y589233D01*
X271536Y589212D01*
X271595Y589181D01*
X271649Y589173D01*
X271686Y589161D01*
X271726Y589162D01*
X271780Y589154D01*
X288290Y589154D01*
X288355Y589165D01*
G37*
G36*
X288355Y561225D02*
X288355Y561225D01*
X288421Y561227D01*
X288464Y561245D01*
X288511Y561253D01*
X288568Y561287D01*
X288628Y561312D01*
X288663Y561343D01*
X288704Y561368D01*
X288746Y561419D01*
X288794Y561463D01*
X288816Y561505D01*
X288845Y561542D01*
X288866Y561604D01*
X288897Y561663D01*
X288905Y561717D01*
X288917Y561754D01*
X288916Y561794D01*
X288924Y561848D01*
X288924Y567690D01*
X288918Y567725D01*
X288919Y567773D01*
X288832Y568430D01*
X288819Y568473D01*
X288789Y568590D01*
X288536Y569203D01*
X288512Y569240D01*
X288453Y569346D01*
X288049Y569872D01*
X288016Y569902D01*
X287932Y569989D01*
X287406Y570393D01*
X287366Y570414D01*
X287263Y570476D01*
X286650Y570729D01*
X286606Y570739D01*
X286490Y570772D01*
X285833Y570859D01*
X285798Y570857D01*
X285750Y570864D01*
X274320Y570864D01*
X274285Y570858D01*
X274237Y570859D01*
X273580Y570772D01*
X273537Y570759D01*
X273420Y570729D01*
X272807Y570476D01*
X272770Y570452D01*
X272664Y570393D01*
X272138Y569989D01*
X272108Y569956D01*
X272093Y569941D01*
X272089Y569939D01*
X272084Y569934D01*
X272021Y569872D01*
X271617Y569346D01*
X271596Y569306D01*
X271534Y569203D01*
X271281Y568590D01*
X271271Y568546D01*
X271238Y568430D01*
X271151Y567773D01*
X271153Y567738D01*
X271146Y567690D01*
X271146Y561848D01*
X271157Y561783D01*
X271159Y561717D01*
X271177Y561674D01*
X271185Y561627D01*
X271219Y561570D01*
X271244Y561510D01*
X271275Y561475D01*
X271300Y561434D01*
X271351Y561393D01*
X271395Y561344D01*
X271437Y561322D01*
X271474Y561293D01*
X271536Y561272D01*
X271595Y561241D01*
X271649Y561233D01*
X271686Y561221D01*
X271726Y561222D01*
X271780Y561214D01*
X288290Y561214D01*
X288355Y561225D01*
G37*
G36*
X288355Y533285D02*
X288355Y533285D01*
X288421Y533287D01*
X288464Y533305D01*
X288511Y533313D01*
X288568Y533347D01*
X288628Y533372D01*
X288663Y533403D01*
X288704Y533428D01*
X288746Y533479D01*
X288794Y533523D01*
X288816Y533565D01*
X288845Y533602D01*
X288866Y533664D01*
X288897Y533723D01*
X288905Y533777D01*
X288917Y533814D01*
X288916Y533854D01*
X288924Y533908D01*
X288924Y539750D01*
X288918Y539785D01*
X288919Y539833D01*
X288832Y540490D01*
X288819Y540533D01*
X288789Y540650D01*
X288536Y541263D01*
X288512Y541300D01*
X288453Y541406D01*
X288049Y541932D01*
X288016Y541962D01*
X287932Y542049D01*
X287406Y542453D01*
X287366Y542474D01*
X287263Y542536D01*
X286650Y542789D01*
X286606Y542799D01*
X286490Y542832D01*
X285833Y542919D01*
X285798Y542917D01*
X285750Y542924D01*
X274320Y542924D01*
X274285Y542918D01*
X274237Y542919D01*
X273580Y542832D01*
X273537Y542819D01*
X273420Y542789D01*
X272807Y542536D01*
X272770Y542512D01*
X272664Y542453D01*
X272138Y542049D01*
X272108Y542016D01*
X272093Y542001D01*
X272089Y541999D01*
X272084Y541994D01*
X272021Y541932D01*
X271617Y541406D01*
X271596Y541366D01*
X271534Y541263D01*
X271281Y540650D01*
X271271Y540606D01*
X271238Y540490D01*
X271151Y539833D01*
X271153Y539798D01*
X271146Y539750D01*
X271146Y533908D01*
X271157Y533843D01*
X271159Y533777D01*
X271177Y533734D01*
X271185Y533687D01*
X271219Y533630D01*
X271244Y533570D01*
X271275Y533535D01*
X271300Y533494D01*
X271351Y533453D01*
X271395Y533404D01*
X271437Y533382D01*
X271474Y533353D01*
X271536Y533332D01*
X271595Y533301D01*
X271649Y533293D01*
X271686Y533281D01*
X271726Y533282D01*
X271780Y533274D01*
X288290Y533274D01*
X288355Y533285D01*
G37*
D10*
X25400Y350520D03*
X25400Y325120D03*
X25400Y299720D03*
X25400Y274320D03*
X25400Y248920D03*
X25400Y223520D03*
X25400Y198120D03*
X25400Y172720D03*
X25400Y147320D03*
X25400Y121920D03*
X25400Y96520D03*
X25400Y71120D03*
X25400Y45720D03*
X25400Y20320D03*
X25400Y909320D03*
X25400Y426720D03*
X25400Y883920D03*
X25400Y858520D03*
X25400Y833120D03*
X25400Y401320D03*
X25400Y375920D03*
D11*
X120396Y502920D02*
X133604Y502920D01*
X133604Y477520D02*
X120396Y477520D01*
X120396Y452120D02*
X133604Y452120D01*
X133604Y426720D02*
X120396Y426720D01*
X120396Y401320D02*
X133604Y401320D01*
X133604Y375920D02*
X120396Y375920D01*
X120396Y350520D02*
X133604Y350520D01*
X133604Y325120D02*
X120396Y325120D01*
X120396Y299720D02*
X133604Y299720D01*
X133604Y274320D02*
X120396Y274320D01*
X120396Y248920D02*
X133604Y248920D01*
X133604Y223520D02*
X120396Y223520D01*
X120396Y198120D02*
X133604Y198120D01*
X133604Y172720D02*
X120396Y172720D01*
X196596Y172720D02*
X209804Y172720D01*
X209804Y198120D02*
X196596Y198120D01*
X196596Y223520D02*
X209804Y223520D01*
X209804Y248920D02*
X196596Y248920D01*
X196596Y274320D02*
X209804Y274320D01*
X209804Y299720D02*
X196596Y299720D01*
X196596Y325120D02*
X209804Y325120D01*
X209804Y350520D02*
X196596Y350520D01*
X196596Y375920D02*
X209804Y375920D01*
X209804Y401320D02*
X196596Y401320D01*
X196596Y426720D02*
X209804Y426720D01*
X209804Y452120D02*
X196596Y452120D01*
X196596Y477520D02*
X209804Y477520D01*
X209804Y502920D02*
X196596Y502920D01*
D12*
X285750Y121920D03*
X285750Y20320D03*
D13*
X203200Y20320D03*
X203200Y71120D03*
D14*
X233680Y72390D03*
X259080Y72390D03*
X233680Y46990D03*
X259080Y46990D03*
X233680Y21590D03*
X259080Y21590D03*
D13*
X177800Y20320D03*
X177800Y71120D03*
D15*
X200660Y116332D02*
X200660Y127508D01*
X149860Y127508D02*
X149860Y116332D01*
D12*
X127000Y71120D03*
X127000Y20320D03*
X152400Y71120D03*
X152400Y20320D03*
D16*
X285750Y276860D03*
X285750Y251460D03*
X285750Y226060D03*
X285750Y200660D03*
X285750Y175260D03*
X285750Y149860D03*
D11*
X34544Y702310D02*
X21336Y702310D01*
X21336Y676910D02*
X34544Y676910D01*
X97536Y676910D02*
X110744Y676910D01*
X110744Y702310D02*
X97536Y702310D01*
X34544Y651510D02*
X21336Y651510D01*
X21336Y626110D02*
X34544Y626110D01*
X97536Y651510D02*
X110744Y651510D01*
X110744Y626110D02*
X97536Y626110D01*
D17*
X111760Y538480D03*
X60960Y538480D03*
D11*
X148336Y701040D02*
X161544Y701040D01*
X161544Y675640D02*
X148336Y675640D01*
X224536Y675640D02*
X237744Y675640D01*
X237744Y701040D02*
X224536Y701040D01*
X161544Y650240D02*
X148336Y650240D01*
X148336Y624840D02*
X161544Y624840D01*
X224536Y650240D02*
X237744Y650240D01*
X237744Y624840D02*
X224536Y624840D01*
D17*
X111760Y566420D03*
X60960Y566420D03*
D18*
X142240Y594360D03*
X243840Y594360D03*
X147320Y731520D03*
X248920Y731520D03*
X142240Y566420D03*
X243840Y566420D03*
D16*
X275590Y845820D03*
X247650Y845820D03*
X275590Y871220D03*
X247650Y871220D03*
X275590Y896620D03*
X247650Y896620D03*
X275590Y922020D03*
X247650Y922020D03*
X275590Y947420D03*
X247650Y947420D03*
X275590Y972820D03*
X247650Y972820D03*
X275590Y998220D03*
X247650Y998220D03*
X275590Y1023620D03*
X247650Y1023620D03*
D10*
X279400Y703580D03*
X279400Y779780D03*
X25400Y1061720D03*
X25400Y1036320D03*
D19*
X278028Y597510D02*
X280772Y597510D01*
X280772Y596290D01*
X278028Y596290D01*
X278028Y597510D01*
X278028Y596580D02*
X280772Y596580D01*
X280772Y596870D02*
X278028Y596870D01*
X278028Y597160D02*
X280772Y597160D01*
X280772Y597450D02*
X278028Y597450D01*
X278028Y578510D02*
X280772Y578510D01*
X278028Y578510D02*
X278028Y579730D01*
X280772Y579730D01*
X280772Y578510D01*
X280772Y578800D02*
X278028Y578800D01*
X278028Y579090D02*
X280772Y579090D01*
X280772Y579380D02*
X278028Y579380D01*
X278028Y579670D02*
X280772Y579670D01*
X280772Y569570D02*
X278028Y569570D01*
X280772Y569570D02*
X280772Y568350D01*
X278028Y568350D01*
X278028Y569570D01*
X278028Y568640D02*
X280772Y568640D01*
X280772Y568930D02*
X278028Y568930D01*
X278028Y569220D02*
X280772Y569220D01*
X280772Y569510D02*
X278028Y569510D01*
X278028Y550570D02*
X280772Y550570D01*
X278028Y550570D02*
X278028Y551790D01*
X280772Y551790D01*
X280772Y550570D01*
X280772Y550860D02*
X278028Y550860D01*
X278028Y551150D02*
X280772Y551150D01*
X280772Y551440D02*
X278028Y551440D01*
X278028Y551730D02*
X280772Y551730D01*
X280772Y541630D02*
X278028Y541630D01*
X280772Y541630D02*
X280772Y540410D01*
X278028Y540410D01*
X278028Y541630D01*
X278028Y540700D02*
X280772Y540700D01*
X280772Y540990D02*
X278028Y540990D01*
X278028Y541280D02*
X280772Y541280D01*
X280772Y541570D02*
X278028Y541570D01*
X278028Y522630D02*
X280772Y522630D01*
X278028Y522630D02*
X278028Y523850D01*
X280772Y523850D01*
X280772Y522630D01*
X280772Y522920D02*
X278028Y522920D01*
X278028Y523210D02*
X280772Y523210D01*
X280772Y523500D02*
X278028Y523500D01*
X278028Y523790D02*
X280772Y523790D01*
X31852Y569620D02*
X29108Y569620D01*
X29108Y570840D01*
X31852Y570840D01*
X31852Y569620D01*
X31852Y569910D02*
X29108Y569910D01*
X29108Y570200D02*
X31852Y570200D01*
X31852Y570490D02*
X29108Y570490D01*
X29108Y570780D02*
X31852Y570780D01*
X31852Y588620D02*
X29108Y588620D01*
X31852Y588620D02*
X31852Y587400D01*
X29108Y587400D01*
X29108Y588620D01*
X29108Y587690D02*
X31852Y587690D01*
X31852Y587980D02*
X29108Y587980D01*
X29108Y588270D02*
X31852Y588270D01*
X31852Y588560D02*
X29108Y588560D01*
D18*
X60960Y594360D03*
X111760Y594360D03*
X20320Y731520D03*
X121920Y731520D03*
X20320Y782320D03*
X121920Y782320D03*
X147320Y782320D03*
X248920Y782320D03*
D20*
X33020Y756920D03*
X109220Y756920D03*
X160020Y756920D03*
X236220Y756920D03*
D18*
X142240Y538480D03*
X243840Y538480D03*
D19*
X278536Y659282D02*
X281280Y659282D01*
X278536Y659282D02*
X278536Y660502D01*
X281280Y660502D01*
X281280Y659282D01*
X281280Y659572D02*
X278536Y659572D01*
X278536Y659862D02*
X281280Y659862D01*
X281280Y660152D02*
X278536Y660152D01*
X278536Y660442D02*
X281280Y660442D01*
X281280Y687172D02*
X278536Y687172D01*
X281280Y687172D02*
X281280Y685952D01*
X278536Y685952D01*
X278536Y687172D01*
X278536Y686242D02*
X281280Y686242D01*
X281280Y686532D02*
X278536Y686532D01*
X278536Y686822D02*
X281280Y686822D01*
X281280Y687112D02*
X278536Y687112D01*
D21*
X279400Y673100D03*
D19*
X278536Y735482D02*
X281280Y735482D01*
X278536Y735482D02*
X278536Y736702D01*
X281280Y736702D01*
X281280Y735482D01*
X281280Y735772D02*
X278536Y735772D01*
X278536Y736062D02*
X281280Y736062D01*
X281280Y736352D02*
X278536Y736352D01*
X278536Y736642D02*
X281280Y736642D01*
X281280Y763372D02*
X278536Y763372D01*
X281280Y763372D02*
X281280Y762152D01*
X278536Y762152D01*
X278536Y763372D01*
X278536Y762442D02*
X281280Y762442D01*
X281280Y762732D02*
X278536Y762732D01*
X278536Y763022D02*
X281280Y763022D01*
X281280Y763312D02*
X278536Y763312D01*
D21*
X279400Y749300D03*
D22*
X128016Y350520D02*
X128016Y344424D01*
X147828Y324612D01*
X147828Y320040D01*
X128016Y350520D02*
X127000Y350520D01*
X284988Y121920D02*
X284988Y99060D01*
X259080Y73152D01*
X284988Y121920D02*
X285750Y121920D01*
X259080Y73152D02*
X259080Y72390D01*
X53340Y588264D02*
X44196Y588264D01*
X30480Y588264D01*
X53340Y588264D02*
X62484Y579120D01*
X71628Y579120D01*
X111252Y539496D01*
X30480Y588010D02*
X30480Y588264D01*
X111252Y539496D02*
X111760Y538480D01*
X28956Y696468D02*
X28956Y701040D01*
X28956Y696468D02*
X44196Y681228D01*
X44196Y588264D01*
X28956Y701040D02*
X27940Y702310D01*
X25908Y1036320D02*
X25908Y1060704D01*
X25400Y1061720D01*
X248412Y781812D02*
X248412Y769620D01*
X236220Y757428D01*
X248412Y781812D02*
X248920Y782320D01*
X236220Y757428D02*
X236220Y756920D01*
X248412Y972312D02*
X274320Y972312D01*
X248412Y972312D02*
X247650Y972820D01*
X274320Y972312D02*
X275590Y972820D01*
X38100Y1024128D02*
X25908Y1036320D01*
X38100Y1024128D02*
X38100Y999744D01*
X39624Y998220D01*
X222504Y998220D01*
X246888Y973836D01*
X25908Y1036320D02*
X25400Y1036320D01*
X246888Y973836D02*
X247650Y972820D01*
D23*
X147828Y320040D03*
D22*
X279908Y762000D02*
X279908Y762762D01*
X279908Y762000D02*
X264160Y762000D01*
D23*
X264160Y762000D03*
D22*
X279908Y686562D02*
X277650Y684304D01*
X261620Y684304D01*
D23*
X261620Y684304D03*
D10*
X25400Y985520D03*
D22*
X128016Y21336D02*
X152400Y21336D01*
X128016Y21336D02*
X127000Y20320D01*
X176784Y45720D02*
X176784Y70104D01*
X176784Y45720D02*
X152400Y21336D01*
X176784Y70104D02*
X177800Y71120D01*
X152400Y21336D02*
X152400Y20320D01*
X259080Y21590D02*
X259080Y28956D01*
X295656Y65532D01*
X295656Y140208D01*
X286512Y149352D01*
X285750Y149860D01*
X185928Y71628D02*
X178308Y71628D01*
X227076Y112776D02*
X263652Y149352D01*
X227076Y112776D02*
X185928Y71628D01*
X263652Y149352D02*
X284988Y149352D01*
X178308Y71628D02*
X177800Y71120D01*
X284988Y149352D02*
X285750Y149860D01*
X25908Y350520D02*
X25908Y374904D01*
X25908Y350520D02*
X25400Y350520D01*
X25908Y374904D02*
X25400Y375920D01*
X25908Y402336D02*
X25908Y426720D01*
X25908Y402336D02*
X25400Y401320D01*
X25400Y426720D02*
X25908Y426720D01*
X25908Y400812D02*
X25908Y376428D01*
X25400Y375920D01*
X25908Y400812D02*
X25400Y401320D01*
X248412Y871728D02*
X248412Y896112D01*
X248412Y871728D02*
X247650Y871220D01*
X248412Y896112D02*
X247650Y896620D01*
X248412Y897636D02*
X248412Y922020D01*
X248412Y897636D02*
X247650Y896620D01*
X286512Y665988D02*
X280416Y659892D01*
X286512Y665988D02*
X288036Y665988D01*
X295148Y673100D01*
X295148Y721360D01*
X281940Y734568D02*
X280416Y736092D01*
X281940Y734568D02*
X295148Y721360D01*
X280416Y659892D02*
X279908Y659892D01*
X279908Y736092D02*
X280416Y736092D01*
X281940Y734568D02*
X295148Y747776D01*
X295148Y850900D01*
X275844Y870204D01*
X275590Y871220D01*
X275844Y871728D02*
X275844Y896112D01*
X275590Y896620D01*
X275844Y871728D02*
X275590Y871220D01*
X275844Y897636D02*
X275844Y922020D01*
X275590Y922020D01*
X275844Y897636D02*
X275590Y896620D01*
X275590Y922020D02*
X248412Y922020D01*
X247650Y922020D01*
X60960Y566420D02*
X60960Y538480D01*
X111252Y594360D02*
X111252Y618744D01*
X105156Y624840D01*
X111252Y594360D02*
X111760Y594360D01*
X105156Y624840D02*
X104140Y626110D01*
X103632Y670560D02*
X103632Y676656D01*
X103632Y670560D02*
X88392Y655320D01*
X88392Y641604D01*
X103632Y626364D01*
X103632Y676656D02*
X104140Y676910D01*
X103632Y626364D02*
X104140Y626110D01*
X38100Y972312D02*
X25908Y984504D01*
X38100Y972312D02*
X38100Y922020D01*
X25400Y909320D01*
X25908Y984504D02*
X25400Y985520D01*
X25908Y883920D02*
X25908Y859536D01*
X25400Y858520D01*
X21336Y781812D02*
X21336Y768096D01*
X32004Y757428D01*
X21336Y781812D02*
X20320Y782320D01*
X32004Y757428D02*
X33020Y756920D01*
X21336Y783336D02*
X21336Y829056D01*
X25400Y833120D01*
X21336Y783336D02*
X20320Y782320D01*
X25908Y833628D02*
X25908Y858012D01*
X25400Y858520D01*
X25908Y833628D02*
X25400Y833120D01*
X25908Y883920D02*
X25908Y908304D01*
X25400Y909320D01*
X25400Y883920D02*
X25908Y883920D01*
X103632Y682752D02*
X103632Y678180D01*
X103632Y682752D02*
X33528Y752856D01*
X33528Y755904D01*
X103632Y678180D02*
X104140Y676910D01*
X33528Y755904D02*
X33020Y756920D01*
X38100Y922020D02*
X247650Y922020D01*
X12192Y438912D02*
X24384Y426720D01*
X12192Y438912D02*
X12192Y489204D01*
X60960Y537972D01*
X25400Y426720D02*
X24384Y426720D01*
X60960Y537972D02*
X60960Y538480D01*
X164592Y175260D02*
X227076Y112776D01*
X164592Y175260D02*
X158496Y175260D01*
X155448Y178308D01*
X155448Y256032D01*
X146304Y265176D01*
X146304Y306324D01*
X128016Y324612D01*
X127000Y325120D01*
X265176Y597408D02*
X278892Y597408D01*
X265176Y597408D02*
X243840Y576072D01*
X240792Y576072D01*
X184404Y519684D01*
X184404Y473964D01*
X153924Y332232D02*
X153924Y266700D01*
X134112Y236220D02*
X13716Y236220D01*
X12192Y237744D01*
X12192Y312420D01*
X24384Y324612D01*
X279400Y596900D02*
X278892Y597408D01*
X25400Y325120D02*
X24384Y324612D01*
D23*
X184404Y473964D03*
X153924Y332232D03*
X153924Y266700D03*
X134112Y236220D03*
D22*
X275844Y568452D02*
X278892Y568452D01*
X275844Y568452D02*
X259080Y551688D01*
X149352Y464820D02*
X117348Y464820D01*
X278892Y568452D02*
X279400Y568960D01*
D23*
X259080Y551688D03*
X149352Y464820D03*
X117348Y464820D03*
D22*
X274320Y541020D02*
X279400Y541020D01*
X274320Y541020D02*
X227076Y493776D01*
X147828Y345948D02*
X155448Y338328D01*
X156972Y338328D01*
X161544Y333756D01*
X161544Y181356D01*
D23*
X227076Y493776D03*
X147828Y345948D03*
X161544Y181356D03*
D22*
X202692Y48768D02*
X202692Y21336D01*
X202692Y48768D02*
X193548Y57912D01*
X193548Y74676D01*
X257556Y138684D01*
X275844Y138684D01*
X202692Y21336D02*
X203200Y20320D01*
D23*
X275844Y138684D03*
D22*
X219456Y60960D02*
X233172Y47244D01*
X233680Y46990D01*
X176784Y461772D02*
X163068Y475488D01*
X176784Y333756D02*
X176784Y300228D01*
X202692Y274320D01*
X203200Y274320D01*
D23*
X219456Y60960D03*
X163068Y475488D03*
X176784Y461772D03*
X176784Y333756D03*
D22*
X272796Y573024D02*
X278892Y579120D01*
X272796Y573024D02*
X271272Y573024D01*
X252984Y554736D01*
X252984Y534924D01*
X220980Y502920D01*
X203200Y502920D01*
X278892Y579120D02*
X279400Y579120D01*
X278892Y551688D02*
X275844Y551688D01*
X202692Y478536D01*
X278892Y551688D02*
X279400Y551180D01*
X202692Y478536D02*
X203200Y477520D01*
X146304Y783336D02*
X121920Y783336D01*
X121920Y782320D01*
X146304Y783336D02*
X147320Y782320D01*
X109728Y769620D02*
X109728Y757428D01*
X109728Y769620D02*
X121920Y781812D01*
X109728Y757428D02*
X109220Y756920D01*
X121920Y781812D02*
X121920Y782320D01*
X160020Y769620D02*
X160020Y756920D01*
X160020Y769620D02*
X147320Y782320D01*
X143256Y486156D02*
X202692Y426720D01*
X143256Y486156D02*
X143256Y524256D01*
X124968Y542544D01*
X124968Y728472D01*
X121920Y731520D01*
X202692Y426720D02*
X203200Y426720D01*
X109728Y743712D02*
X109728Y755904D01*
X109728Y743712D02*
X121920Y731520D01*
X109728Y755904D02*
X109220Y756920D01*
X128016Y451104D02*
X128016Y445008D01*
X167640Y405384D01*
X167640Y188976D01*
X196596Y160020D01*
X265176Y160020D01*
X272796Y167640D01*
X272796Y239268D01*
X284988Y251460D01*
X128016Y451104D02*
X127000Y452120D01*
X284988Y251460D02*
X285750Y251460D01*
X146304Y477012D02*
X128016Y477012D01*
X146304Y477012D02*
X187452Y435864D01*
X187452Y397764D01*
X196596Y388620D01*
X265176Y388620D01*
X266700Y387096D01*
X266700Y313944D01*
X298704Y281940D01*
X298704Y239268D01*
X286512Y227076D01*
X128016Y477012D02*
X127000Y477520D01*
X286512Y227076D02*
X285750Y226060D01*
X149352Y121920D02*
X149352Y92964D01*
X128016Y71628D01*
X127000Y71120D01*
X128016Y268224D02*
X128016Y274320D01*
X128016Y268224D02*
X149352Y246888D01*
X149352Y121920D01*
X128016Y274320D02*
X127000Y274320D01*
X149352Y121920D02*
X149860Y121920D01*
X199644Y121920D02*
X199644Y118872D01*
X152400Y71628D01*
X152400Y71120D01*
X128016Y292608D02*
X128016Y298704D01*
X128016Y292608D02*
X143256Y277368D01*
X143256Y257556D01*
X152400Y248412D01*
X152400Y169164D01*
X199644Y121920D01*
X128016Y298704D02*
X127000Y299720D01*
X199644Y121920D02*
X200660Y121920D01*
X204216Y70104D02*
X204216Y51816D01*
X233172Y22860D01*
X204216Y70104D02*
X203200Y71120D01*
X233172Y22860D02*
X233680Y21590D01*
X164592Y338328D02*
X143256Y359664D01*
X164592Y338328D02*
X164592Y187452D01*
X195072Y156972D01*
X275844Y156972D01*
X280416Y161544D01*
X291084Y161544D01*
X298704Y153924D01*
X298704Y33528D01*
X286512Y21336D01*
X285750Y20320D01*
D23*
X143256Y359664D03*
D22*
X38100Y489204D02*
X33528Y493776D01*
X38100Y489204D02*
X38100Y313944D01*
X39624Y312420D01*
X131064Y312420D01*
X185928Y260604D02*
X185928Y240792D01*
X203200Y223520D01*
D23*
X33528Y493776D03*
X131064Y312420D03*
X185928Y260604D03*
X137160Y617220D03*
D22*
X202692Y204216D02*
X202692Y198120D01*
X202692Y204216D02*
X170688Y236220D01*
X170688Y381000D01*
X182880Y393192D01*
X184404Y455676D02*
X184404Y464820D01*
X152400Y496824D01*
X152400Y542544D01*
X132588Y562356D01*
X132588Y571500D01*
X152400Y591312D01*
X152400Y601980D01*
X137160Y617220D01*
X202692Y198120D02*
X203200Y198120D01*
D23*
X182880Y393192D03*
X184404Y455676D03*
D22*
X278892Y501396D02*
X278892Y522732D01*
X278892Y501396D02*
X266700Y489204D01*
X266700Y466344D01*
X265176Y464820D01*
X216408Y464820D01*
X204216Y452628D01*
X278892Y522732D02*
X279400Y523240D01*
X204216Y452628D02*
X203200Y452120D01*
X243840Y594360D02*
X222504Y615696D01*
X220980Y615696D01*
X170688Y665988D01*
X170688Y685800D01*
X155448Y701040D01*
X154940Y701040D01*
X272288Y779780D02*
X279400Y779780D01*
X272288Y779780D02*
X214884Y722376D01*
X214884Y691896D01*
X231140Y675640D01*
X51816Y569976D02*
X30480Y569976D01*
X51816Y569976D02*
X57912Y576072D01*
X64008Y576072D01*
X102108Y537972D01*
X102108Y534924D01*
X108204Y528828D01*
X115824Y528828D01*
X121920Y534924D01*
X121920Y633984D01*
X105156Y650748D01*
X30480Y570230D02*
X30480Y569976D01*
X104140Y651510D02*
X105156Y650748D01*
D10*
X25400Y960120D03*
D22*
X247650Y845820D02*
X275590Y845820D01*
D10*
X25400Y1010920D03*
D22*
X248412Y947928D02*
X274320Y947928D01*
X275590Y947420D01*
X248412Y947928D02*
X247650Y947420D01*
X141732Y603504D02*
X141732Y594360D01*
X141732Y603504D02*
X131064Y614172D01*
X131064Y652272D01*
X153924Y675132D01*
X142240Y594360D02*
X141732Y594360D01*
X153924Y675132D02*
X154940Y675640D01*
X146304Y711708D02*
X146304Y731520D01*
X146304Y711708D02*
X138684Y704088D01*
X138684Y691896D01*
X154940Y675640D01*
X147320Y731520D02*
X146304Y731520D01*
X243840Y566420D02*
X243840Y538480D01*
X247650Y998220D02*
X275590Y998220D01*
X274320Y1024128D02*
X248412Y1024128D01*
X247650Y1023620D01*
X274320Y1024128D02*
X275590Y1023620D01*
D10*
X50800Y20320D03*
X76200Y20320D03*
X101600Y20320D03*
X101600Y45720D03*
X76200Y45720D03*
X50800Y45720D03*
X50800Y71120D03*
X76200Y71120D03*
X101600Y71120D03*
X101600Y96520D03*
X76200Y96520D03*
X50800Y96520D03*
X50800Y121920D03*
X76200Y121920D03*
X101600Y121920D03*
X101600Y147320D03*
X76200Y147320D03*
X50800Y147320D03*
X50800Y172720D03*
X76200Y172720D03*
X101600Y172720D03*
X101600Y198120D03*
X76200Y198120D03*
X50800Y198120D03*
X50800Y223520D03*
X76200Y223520D03*
X101600Y223520D03*
X101600Y248920D03*
X76200Y248920D03*
X50800Y248920D03*
X50800Y274320D03*
X76200Y274320D03*
X101600Y274320D03*
X101600Y299720D03*
X76200Y299720D03*
X50800Y299720D03*
X50800Y325120D03*
X76200Y325120D03*
X101600Y325120D03*
X101600Y350520D03*
X76200Y350520D03*
X50800Y350520D03*
X50800Y375920D03*
X76200Y375920D03*
X101600Y375920D03*
X101600Y401320D03*
X76200Y401320D03*
X50800Y401320D03*
X50800Y426720D03*
X76200Y426720D03*
X101600Y426720D03*
X101600Y452120D03*
X76200Y452120D03*
X50800Y452120D03*
X25400Y452120D03*
X25400Y477520D03*
X50800Y477520D03*
X76200Y477520D03*
X101600Y477520D03*
X228600Y172720D03*
X254000Y172720D03*
X254000Y198120D03*
X228600Y198120D03*
X228600Y223520D03*
X254000Y223520D03*
X254000Y248920D03*
X228600Y248920D03*
X228600Y274320D03*
X254000Y274320D03*
X254000Y299720D03*
X228600Y299720D03*
X228600Y325120D03*
X254000Y325120D03*
X254000Y350520D03*
X228600Y350520D03*
X279400Y350520D03*
X279400Y375920D03*
X254000Y375920D03*
X228600Y375920D03*
X228600Y401320D03*
X254000Y401320D03*
X279400Y401320D03*
X279400Y426720D03*
X254000Y426720D03*
X228600Y426720D03*
X228600Y452120D03*
X254000Y452120D03*
X279400Y452120D03*
X279400Y477520D03*
X254000Y477520D03*
X228600Y477520D03*
X50800Y1061720D03*
X76200Y1061720D03*
X101600Y1061720D03*
X127000Y1061720D03*
X152400Y1061720D03*
X177800Y1061720D03*
X203200Y1061720D03*
X203200Y1036320D03*
X177800Y1036320D03*
X152400Y1036320D03*
X127000Y1036320D03*
X101600Y1036320D03*
X76200Y1036320D03*
X50800Y1036320D03*
X50800Y1010920D03*
X76200Y1010920D03*
X101600Y1010920D03*
X127000Y1010920D03*
X152400Y1010920D03*
X177800Y1010920D03*
X203200Y1010920D03*
X50800Y960120D03*
X50800Y985520D03*
X76200Y985520D03*
X101600Y985520D03*
X127000Y985520D03*
X152400Y985520D03*
X177800Y985520D03*
X203200Y985520D03*
X203200Y960120D03*
X177800Y960120D03*
X152400Y960120D03*
X127000Y960120D03*
X101600Y960120D03*
X76200Y960120D03*
X25400Y934720D03*
X50800Y934720D03*
X76200Y934720D03*
X101600Y934720D03*
X127000Y934720D03*
X152400Y934720D03*
X177800Y934720D03*
X203200Y934720D03*
X203200Y909320D03*
X177800Y909320D03*
X152400Y909320D03*
X127000Y909320D03*
X101600Y909320D03*
X76200Y909320D03*
X50800Y909320D03*
X50800Y883920D03*
X76200Y883920D03*
X101600Y883920D03*
X127000Y883920D03*
X152400Y883920D03*
X177800Y883920D03*
X203200Y883920D03*
X203200Y858520D03*
X177800Y858520D03*
X152400Y858520D03*
X127000Y858520D03*
X101600Y858520D03*
X76200Y858520D03*
X50800Y858520D03*
X76200Y833120D03*
X101600Y833120D03*
X127000Y833120D03*
X152400Y833120D03*
X177800Y833120D03*
X203200Y833120D03*
X50800Y833120D03*
X279400Y627380D03*
D22*
X278892Y673608D02*
X258572Y673608D01*
X249936Y682244D01*
X249936Y731520D01*
X278892Y673608D02*
X279400Y673100D01*
X249936Y731520D02*
X248920Y731520D01*
D10*
X279400Y325120D03*
D22*
X278892Y748284D02*
X252984Y748284D01*
X239268Y734568D01*
X239268Y713232D01*
X246888Y705612D01*
X246888Y605028D01*
X252984Y598932D01*
X252984Y589788D01*
X242316Y579120D01*
X155448Y579120D01*
X143256Y566928D01*
X278892Y748284D02*
X279400Y749300D01*
X143256Y566928D02*
X142240Y566420D01*
M02*
